<?xml version="1.0" encoding="utf-8"?>
<!-- Generator: Adobe Illustrator 18.1.0, SVG Export Plug-In . SVG Version: 6.00 Build 0)  -->
<!DOCTYPE svg PUBLIC "-//W3C//DTD SVG 1.1//EN" "http://www.w3.org/Graphics/SVG/1.1/DTD/svg11.dtd">
<svg version="1.1" id="Layer_1" xmlns="http://www.w3.org/2000/svg" xmlns:xlink="http://www.w3.org/1999/xlink" x="0px" y="0px"
   viewBox="0 0 1064 200" enable-background="new 0 0 1064 200" xml:space="preserve">
<g>
  <path fill="#FFFFFF" d="M312,0H8C3.6,0,0,3.6,0,8v184c0,4.4,3.6,8,8,8h304c4.4,0,8-3.6,8-8V8C320,3.6,316.4,0,312,0z M300,180H20
    V20h280V180z"/>
  <path fill="#FFFFFF" d="M167.9,42.5l-37.6,62.6c-0.8,1.3,0,2.9,1.5,3.1l27.4,3.9c1.2,0.2,2,1.4,1.7,2.6l-9.9,40.8
    c-0.6,2.4,2.7,3.6,3.8,1.5l34.8-62.2c0.7-1.3-0.1-2.9-1.5-3.1l-26-3.9c-1.2-0.2-2-1.4-1.7-2.6l11.1-41.1
    C172.4,41.8,169.2,40.4,167.9,42.5z"/>
</g>
<g>
  <path fill="#FFFFFF" d="M427.7,139c-8.7,0-15.6-3.6-20.8-10.7l-0.8,9.3H400V48.5l7.2-0.6v21.6c0,6.6-0.1,11.2-0.2,13.7
    c2.4-3.7,5.4-6.4,9.1-8.2c3.7-1.8,7.5-2.7,11.5-2.7c8.7,0,15.4,3.1,20.3,9.3s7.3,14.2,7.3,23.9c0,6.6-1,12.3-3,17.3
    c-2,5-5.1,8.9-9.3,11.9C438.7,137.5,433.6,139,427.7,139z M428,133.2c3.6,0,6.7-0.8,9.3-2.3c2.6-1.5,4.7-3.7,6.1-6.3
    c1.4-2.7,2.5-5.6,3.1-8.7c0.6-3.1,1-6.5,1-10.1c0-2.9-0.2-5.6-0.6-8.2c-0.4-2.6-1-5.1-2-7.5c-1-2.4-2.1-4.5-3.6-6.2
    c-1.4-1.7-3.3-3.1-5.6-4.2s-4.9-1.6-7.8-1.6c-6.8,0-11.9,2.4-15.5,7.3c-3.6,4.9-5.3,11.8-5.3,20.7c0,4.1,0.4,7.8,1.1,11
    c0.8,3.2,2,6.1,3.6,8.5c1.6,2.4,3.8,4.3,6.5,5.6C421.1,132.6,424.3,133.2,428,133.2z"/>
  <path fill="#FFFFFF" d="M495.7,139c-5.8,0-11-1.5-15.4-4.4c-4.4-2.9-7.8-6.9-10.1-11.9c-2.3-5-3.5-10.7-3.5-17
    c0-4.8,0.7-9.2,2-13.3s3.3-7.6,5.8-10.6c2.5-3,5.6-5.3,9.3-7c3.7-1.7,7.8-2.5,12.4-2.5c6,0,11.2,1.5,15.6,4.4
    c4.4,3,7.7,6.9,9.9,11.9c2.2,5,3.3,10.7,3.3,17c0,6.4-1.1,12.1-3.4,17.1s-5.6,9-10.1,11.9C507,137.5,501.7,139,495.7,139z
     M496.2,133.2c4.7,0,8.6-1.2,11.9-3.7c3.2-2.5,5.6-5.8,7-9.8s2.2-8.7,2.2-14c0-8.3-1.8-14.9-5.3-20s-8.9-7.6-16.1-7.6
    c-4.7,0-8.7,1.3-12,3.8c-3.3,2.5-5.7,5.8-7.2,9.9c-1.5,4.1-2.3,8.8-2.3,14c0,8,1.9,14.6,5.6,19.7S489.1,133.2,496.2,133.2z"/>
  <path fill="#FFFFFF" d="M555.5,139c-5.4,0-9.3-1.2-11.8-3.7c-2.5-2.4-3.8-6.4-3.8-11.9v-75l7.2-0.6V123c0,3.9,0.7,6.6,2.1,8.1
    c1.4,1.5,3.6,2.2,6.5,2.2c2.3,0,5.3-0.4,8.8-1.3l0.3,5.6C560.9,138.5,557.8,139,555.5,139z"/>
  <path fill="#FFFFFF" d="M591.5,139c-5.4,0-9.3-1.2-11.8-3.7c-2.5-2.4-3.8-6.4-3.8-11.9V78.7h-9.1l0.5-4.4l8.7-0.8l1.9-14.7l5.1-0.4
    v14.9h18.8v5.3H583v43.1c0,4.5,0.7,7.6,2.2,9.1c1.5,1.5,4.1,2.3,7.9,2.3c2.4,0,5.4-0.4,9-1.3l0.3,5.6
    C597.7,138.5,594.1,139,591.5,139z"/>
  <path fill="#FFFFFF" d="M640.1,137.6V73.4h6.3l1,9.9c2.3-3.4,5.4-6.1,9.3-8.1c3.9-2,8.1-3,12.6-3c7.4,0,12.8,2,16.3,6.1
    s5.2,10.5,5.2,19.5v39.9h-7.3V94.5c-0.2-5.7-1.4-9.8-3.6-12.3s-5.9-3.8-11-3.8c-5.8,0-10.6,1.5-14.3,4.4s-6,6.7-6.9,11.4
    c-0.2,1.8-0.2,3.8-0.2,5.7v37.7H640.1z"/>
  <path fill="#FFFFFF" d="M733.7,139c-8.9,0-15.9-3-21.1-8.9c-5.2-5.9-7.8-14-7.8-24.1c0-9.8,2.5-17.8,7.6-24.1
    c5.1-6.3,11.7-9.5,19.8-9.7c7.5,0,13.6,2.7,18.2,8.1c4.6,5.4,6.9,12.6,6.9,21.7c0,0.4,0,1.1,0,2.1c0,1.1,0,1.8,0,2.3h-44.7
    c0.1,8.2,2.1,14.8,6,19.6c3.9,4.8,9.1,7.2,15.5,7.2c4.2,0,7.8-0.5,10.9-1.5s6.3-2.4,9.7-4.2l1.2,5.5C749.2,137,741.8,139,733.7,139
    z M712.7,100.5h36.6c0-7.2-1.5-12.6-4.6-16.4c-3.1-3.8-7.3-5.7-12.7-5.7c-5.5,0-9.9,2-13.2,6.1C715.3,88.5,713.3,93.9,712.7,100.5z
    "/>
  <path fill="#FFFFFF" d="M789.8,139c-5.4,0-9.3-1.2-11.8-3.7c-2.5-2.4-3.8-6.4-3.8-11.9V78.7h-9.1l0.5-4.4l8.7-0.8l1.9-14.7l5.1-0.4
    v14.9h18.8v5.3h-18.8v43.1c0,4.5,0.7,7.6,2.2,9.1s4.1,2.3,7.9,2.3c2.4,0,5.4-0.4,9-1.3l0.3,5.6C796.1,138.5,792.4,139,789.8,139z"
    />
  <path fill="#FFFFFF" d="M821.9,137.6L804,73.4h7.6l14.8,57.4c10.7-34.3,16.6-53.4,17.9-57.4h8.9c11.7,38.1,17.6,57.2,17.7,57.2
    l14.2-57.2h7.6L875,137.6h-8.4c-0.1,0-2.9-9-8.3-27s-8.5-28.7-9.4-31.8c-0.5,2.1-2.2,8.1-5.3,17.8s-6.1,19.1-8.9,27.9
    c-2.9,8.8-4.3,13.2-4.3,13.1H821.9z"/>
  <path fill="#FFFFFF" d="M928.7,139c-5.8,0-11-1.5-15.4-4.4c-4.4-2.9-7.8-6.9-10.1-11.9s-3.5-10.7-3.5-17c0-4.8,0.7-9.2,2-13.3
    s3.3-7.6,5.8-10.6c2.5-3,5.6-5.3,9.3-7c3.7-1.7,7.8-2.5,12.4-2.5c6,0,11.2,1.5,15.6,4.4s7.7,6.9,9.9,11.9c2.2,5,3.3,10.7,3.3,17
    c0,6.4-1.1,12.1-3.4,17.1s-5.6,9-10.1,11.9C940,137.5,934.7,139,928.7,139z M929.2,133.2c4.7,0,8.6-1.2,11.9-3.7
    c3.2-2.5,5.6-5.8,7-9.8s2.2-8.7,2.2-14c0-8.3-1.8-14.9-5.3-20s-8.9-7.6-16.1-7.6c-4.7,0-8.7,1.3-12,3.8c-3.3,2.5-5.7,5.8-7.2,9.9
    c-1.5,4.1-2.3,8.8-2.3,14c0,8,1.9,14.6,5.6,19.7S922.2,133.2,929.2,133.2z"/>
  <path fill="#FFFFFF" d="M972.5,137.6c-0.1-37.7-0.1-59.1-0.1-64.2h6l0.5,12.7c2.3-3.8,5.2-7,8.8-9.4c3.6-2.4,7.3-3.6,11.1-3.6
    c1.6,0,3.3,0.1,5.2,0.4l-0.5,6c-1.4-0.2-2.9-0.4-4.5-0.4c-5.4,0-10,2.1-13.7,6.4s-5.5,9.3-5.5,15.2v36.9H972.5z"/>
  <path fill="#FFFFFF" d="M1014.4,137.6V48.4l7.2-0.6v50.9v5.6c0.4-0.4,1.6-1.8,3.8-4.2c2.1-2.3,3.4-3.7,3.6-4l22.2-22.8h9.8
    l-26.9,26.8l28.8,37.4h-9.2l-24.6-33.3l-7.5,6.9v26.4H1014.4z"/>
</g>
</svg>
