<?xml version="1.0" encoding="utf-8"?>
<!-- Generator: Adobe Illustrator 18.1.1, SVG Export Plug-In . SVG Version: 6.00 Build 0)  -->
<!DOCTYPE svg PUBLIC "-//W3C//DTD SVG 1.1//EN" "http://www.w3.org/Graphics/SVG/1.1/DTD/svg11.dtd">
<svg version="1.1" id="Layer_1" xmlns="http://www.w3.org/2000/svg" xmlns:xlink="http://www.w3.org/1999/xlink" x="0px" y="0px"
   viewBox="0 0 102 108" enable-background="new 0 0 102 108" xml:space="preserve">
<rect x="0" y="22" fill="#E6E6E6" width="24" height="20"/>
<rect x="26" y="22" fill="#E6E6E6" width="24" height="20"/>
<rect x="52" y="22" fill="#E6E6E6" width="24" height="20"/>
<rect x="78" y="22" fill="#E6E6E6" width="24" height="20"/>
<rect x="0" y="44" fill="#E6E6E6" width="24" height="20"/>
<rect x="26" y="44" fill="#E6E6E6" width="24" height="20"/>
<rect x="52" y="44" fill="#E6E6E6" width="24" height="20"/>
<rect x="78" y="44" fill="#E6E6E6" width="24" height="20"/>
<rect x="0" y="66" fill="#E6E6E6" width="24" height="20"/>
<rect x="26" y="66" fill="#E6E6E6" width="24" height="20"/>
<rect x="52" y="66" fill="#FF3B4E" width="24" height="20"/>
<rect x="0" y="0" fill="#FF3B4E" width="102" height="20"/>
<rect x="78" y="66" fill="#E6E6E6" width="24" height="20"/>
<rect x="0" y="88" fill="#E6E6E6" width="24" height="20"/>
<rect x="26" y="88" fill="#E6E6E6" width="24" height="20"/>
<rect x="52" y="88" fill="#E6E6E6" width="24" height="20"/>
<rect x="78" y="88" fill="#E6E6E6" width="24" height="20"/>
</svg>
