<?xml version="1.0" encoding="utf-8"?>
<!-- Generator: Adobe Illustrator 18.1.1, SVG Export Plug-In . SVG Version: 6.00 Build 0)  -->
<!DOCTYPE svg PUBLIC "-//W3C//DTD SVG 1.1//EN" "http://www.w3.org/Graphics/SVG/1.1/DTD/svg11.dtd">
<svg version="1.1" id="Layer_1" xmlns="http://www.w3.org/2000/svg" xmlns:xlink="http://www.w3.org/1999/xlink" x="0px" y="0px"
   viewBox="0 0 140 150" enable-background="new 0 0 140 150" xml:space="preserve">
<polygon points="69.6,150 19.6,100 19.6,50 69.6,100 "/>
<polygon points="119.6,100 69.6,150 69.6,100 119.6,50 "/>
<polygon fill="#F7A500" points="69.6,0 119.6,50 119.6,100 69.6,50 "/>
<polygon fill="#FFBD1A" points="19.6,50 69.6,0 69.6,50 19.6,100 "/>
<g>
  <path fill="#FFFFFF" d="M15.1,123.7c-1.7,1.7-3.8,2.5-6.3,2.5s-4.6-0.8-6.3-2.5C0.8,122,0,120,0,117.5c0-2.5,0.8-4.5,2.5-6.2
    c1.7-1.7,3.8-2.5,6.3-2.5s4.6,0.8,6.3,2.5c1.7,1.7,2.5,3.7,2.5,6.2C17.6,120,16.8,122,15.1,123.7z M13,113.2
    c-1.1-1.2-2.5-1.8-4.2-1.8c-1.7,0-3.1,0.6-4.2,1.8c-1.1,1.2-1.7,2.6-1.7,4.3s0.6,3.1,1.7,4.3c1.1,1.2,2.5,1.8,4.2,1.8
    c1.7,0,3.1-0.6,4.2-1.8c1.1-1.2,1.7-2.6,1.7-4.3S14.2,114.4,13,113.2z"/>
  <path fill="#FFFFFF" d="M32.2,122.2c0.8,0.9,1.8,1.3,3.1,1.3s2.3-0.4,3.1-1.3c0.8-0.9,1.2-2.1,1.2-3.6v-9.3h2.8v9.4
    c0,2.4-0.7,4.3-2,5.6c-1.3,1.3-3,2-5.1,2c-2.1,0-3.8-0.7-5.1-2c-1.3-1.3-2-3.2-2-5.6v-9.4H31v9.3C31,120,31.4,121.3,32.2,122.2z"/>
  <path fill="#FFFFFF" d="M60.3,111.8V126h-2.8v-14.2h-5.1v-2.6h13v2.6H60.3z"/>
  <path fill="#FFFFFF" d="M83,126h-7.3v-16.8h6.5c1.1,0,2.1,0.1,2.9,0.4c0.8,0.3,1.4,0.6,1.8,1.1c0.8,0.9,1.2,1.8,1.2,2.9
    c0,1.3-0.4,2.3-1.2,2.9c-0.3,0.2-0.5,0.4-0.6,0.4c-0.1,0.1-0.3,0.1-0.6,0.3c1,0.2,1.9,0.7,2.5,1.4c0.6,0.7,0.9,1.6,0.9,2.6
    c0,1.2-0.4,2.2-1.2,3.1C86.9,125.5,85.3,126,83,126z M78.5,116.2h3.6c2,0,3.1-0.7,3.1-2.1c0-0.8-0.2-1.4-0.7-1.7
    c-0.5-0.4-1.3-0.5-2.3-0.5h-3.6V116.2z M78.5,123.4H83c1,0,1.8-0.2,2.4-0.5c0.6-0.3,0.8-0.9,0.8-1.9c0-1.5-1.2-2.2-3.6-2.2h-4.1
    V123.4z"/>
  <path fill="#FFFFFF" d="M113.8,123.7c-1.7,1.7-3.8,2.5-6.3,2.5s-4.6-0.8-6.3-2.5c-1.7-1.7-2.5-3.7-2.5-6.2c0-2.5,0.8-4.5,2.5-6.2
    c1.7-1.7,3.8-2.5,6.3-2.5s4.6,0.8,6.3,2.5c1.7,1.7,2.5,3.7,2.5,6.2C116.4,120,115.5,122,113.8,123.7z M111.8,113.2
    c-1.1-1.2-2.5-1.8-4.2-1.8c-1.7,0-3.1,0.6-4.2,1.8c-1.1,1.2-1.7,2.6-1.7,4.3s0.6,3.1,1.7,4.3c1.1,1.2,2.5,1.8,4.2,1.8
    c1.7,0,3.1-0.6,4.2-1.8c1.1-1.2,1.7-2.6,1.7-4.3S112.9,114.4,111.8,113.2z"/>
  <path fill="#FFFFFF" d="M136.5,126l-4.1-6.3h-0.1l-4.1,6.3h-3.5l5.8-8.6l-5.3-8.2h3.5l3.7,5.7h0.1l3.7-5.7h3.5l-5.3,8.2l5.8,8.6
    H136.5z"/>
</g>
</svg>
